<svg xmlns="http://www.w3.org/2000/svg" viewBox="-65.00 -726.80 4732.00 794.60" role="img" aria-label="balanceven">
  <title>balanceven</title>
  <path fill="#FFFFFF" d="M259-93C197-93 149-151 149-234C149-341 186-394 258-394C334-394 370-343 370-242C370-154 324-93 259-93M151 0L152-60C183-10 229 13 289 13C413 13 502-85 502-251C502-400 427-505 300-505C239-505 191-480 154-428L154-672L26-672L26 0M848-187C847-129 797-80 730-80C689-80 667-98 667-135C667-177 691-198 765-212C813-221 836-228 849-241M979 0L979-311C979-435 925-505 769-505C611-505 555-434 553-332L674-332C680-376 704-405 763-405C814-405 846-386 846-354C846-320 828-307 763-298C632-280 537-264 537-122C537-42 589 13 701 13C767 13 819-10 850-44C851-29 854-12 858 0M1166 0L1166-672L1036-672L1036 0M1519-187C1518-129 1468-80 1401-80C1360-80 1338-98 1338-135C1338-177 1362-198 1436-212C1484-221 1507-228 1520-241M1650 0L1650-311C1650-435 1596-505 1440-505C1282-505 1226-434 1224-332L1345-332C1351-376 1375-405 1434-405C1485-405 1517-386 1517-354C1517-320 1499-307 1434-298C1303-280 1208-264 1208-122C1208-42 1260 13 1372 13C1438 13 1490-10 1521-44C1522-29 1525-12 1529 0M2153 0L2153-341C2153-448 2084-505 1990-505C1911-505 1861-475 1831-420L1831-492L1707-492L1707 0L1837 0L1837-282C1837-357 1870-395 1938-395C2000-395 2022-374 2022-298L2022 0M2522-178C2517-125 2477-96 2426-96C2375-96 2330-148 2330-255C2330-362 2375-397 2430-397C2479-397 2516-367 2523-316L2654-316C2646-432 2559-505 2431-505C2293-505 2201-428 2201-252C2201-76 2293 13 2427 13C2546 13 2639-64 2653-178M2814-294C2819-362 2862-402 2914-402C2965-402 3013-367 3015-294M3149-212C3149-407 3069-505 2918-505C2767-505 2680-407 2680-255C2680-77 2762 13 2926 13C3031 13 3112-44 3142-145L3008-145C2999-111 2962-90 2920-90C2856-90 2814-138 2810-212M3449 0L3626-492L3489-492L3385-167L3282-492L3137-492L3313 0M3750-294C3755-362 3798-402 3850-402C3901-402 3949-367 3951-294M4085-212C4085-407 4005-505 3854-505C3703-505 3616-407 3616-255C3616-77 3698 13 3862 13C3967 13 4048-44 4078-145L3944-145C3935-111 3898-90 3856-90C3792-90 3750-138 3746-212M4576 0L4576-341C4576-448 4507-505 4413-505C4334-505 4284-475 4254-420L4254-492L4130-492L4130 0L4260 0L4260-282C4260-357 4293-395 4361-395C4423-395 4445-374 4445-298L4445 0"/>
</svg>
