<svg xmlns="http://www.w3.org/2000/svg" viewBox="0 0 1024 1536" width="1024" height="1536">
  <!-- transparent base; foil shader shows through -->
  <path fill="#0A0A0A" d="M104.23 268.40L104.23 242.66L39.99 242.66L39.99 209.44L113.47 209.44L113.47 183.92L9.41 183.92L9.41 330L39.99 330L39.99 268.40M149.77 330L149.77 182.16L121.17 182.16L121.17 330M215.11 308.88C197.73 308.88 188.93 297.88 188.93 275.88C188.93 253.88 197.73 243.10 215.11 243.10C232.49 243.10 241.29 253.88 241.29 275.88C241.29 297.88 232.49 308.88 215.11 308.88M215.11 332.86C248.77 332.86 270.11 310.20 270.11 275.88C270.11 241.34 248.99 218.90 215.11 218.90C180.79 218.90 159.45 241.56 159.45 275.88C159.45 309.54 180.13 332.86 215.11 332.86M346.01 288.86C345.79 301.62 334.79 312.40 320.05 312.40C311.03 312.40 306.19 308.44 306.19 300.30C306.19 291.06 311.47 286.44 327.75 283.36C338.31 281.38 343.37 279.84 346.23 276.98M374.83 330L374.83 261.58C374.83 234.30 362.95 218.90 328.63 218.90C293.87 218.90 281.55 234.52 281.11 256.96L307.73 256.96C309.05 247.28 314.33 240.90 327.31 240.90C338.53 240.90 345.57 245.08 345.57 252.12C345.57 259.60 341.61 262.46 327.31 264.44C298.49 268.40 277.59 271.92 277.59 303.16C277.59 320.76 289.03 332.86 313.67 332.86C328.19 332.86 339.63 327.80 346.45 320.32C346.67 323.62 347.33 327.36 348.21 330M448.75 286.88C448.75 300.30 443.47 308 432.03 308C420.37 308 415.53 300.08 415.53 286.44L415.53 242L475.37 242L475.37 221.76L415.53 221.76L415.53 192.50L387.37 192.50L387.37 289.30C387.37 312.62 399.91 332.86 431.59 332.86C462.17 332.86 475.37 312.40 475.37 289.52L475.37 258.72L448.75 258.72M568.87 305.14L568.87 265.76L608.03 265.76C621.67 265.76 630.03 271.48 630.03 284.24C630.03 296.12 621.67 305.14 607.59 305.14M605.61 209.22C619.91 209.22 625.85 213.84 625.85 225.06C625.85 235.40 619.47 240.90 607.37 240.90L568.87 240.90L568.87 209.22M605.17 330C641.91 330 659.73 313.06 659.73 286.44C659.73 265.54 649.83 255.64 637.51 251.02C647.63 246.84 655.33 236.28 655.33 223.74C655.33 199.32 639.93 183.92 611.33 183.92L539.39 183.92L539.39 330M695.59 330L695.59 221.76L666.99 221.76L666.99 330M695.59 208.78L695.59 182.16L666.99 182.16L666.99 208.78M769.95 286.88C769.95 300.30 764.67 308 753.23 308C741.57 308 736.73 300.08 736.73 286.44L736.73 242L796.57 242L796.57 221.76L736.73 221.76L736.73 192.50L708.57 192.50L708.57 289.30C708.57 312.62 721.11 332.86 752.79 332.86C783.37 332.86 796.57 312.40 796.57 289.52L796.57 258.72L769.95 258.72M835.29 265.32C836.39 250.36 845.85 241.56 857.29 241.56C868.51 241.56 879.07 249.26 879.51 265.32M908.99 283.36C908.99 240.46 891.39 218.90 858.17 218.90C824.95 218.90 805.81 240.46 805.81 273.90C805.81 313.06 823.85 332.86 859.93 332.86C883.03 332.86 900.85 320.32 907.45 298.10L877.97 298.10C875.99 305.58 867.85 310.20 858.61 310.20C844.53 310.20 835.29 299.64 834.41 283.36M1011.51 254.54C1009.97 231.22 995.89 218.90 964.65 218.90C931.65 218.90 919.11 232.76 919.11 251.02C919.11 260.70 922.63 269.06 932.75 275.44C940.45 280.28 950.57 283.36 968.83 287.76C978.07 289.96 986.21 292.38 986.21 300.08C986.21 308.22 977.19 311.30 967.07 311.30C953.21 311.30 944.63 305.36 944.63 295.24L915.15 295.24C915.59 317.24 934.07 332.86 967.29 332.86C998.09 332.86 1014.59 319.44 1014.59 297C1014.59 282.92 1008.21 275.44 996.77 270.82C988.41 267.52 976.75 265.10 964.43 261.58C952.77 258.28 946.83 255.64 946.83 249.26C946.83 242.88 952.99 240.24 963.77 240.24C976.75 240.24 982.47 243.98 984.01 254.54"/>
  <path fill="#0A0A0A" d="M340.77 399.05C336.80 399.05 333.73 395.34 333.73 390.02C333.73 383.18 336.10 379.78 340.70 379.78C345.57 379.78 347.87 383.05 347.87 389.51C347.87 395.14 344.93 399.05 340.77 399.05M333.86 405L333.92 401.16C335.90 404.36 338.85 405.83 342.69 405.83C350.62 405.83 356.32 399.56 356.32 388.94C356.32 379.40 351.52 372.68 343.39 372.68C339.49 372.68 336.42 374.28 334.05 377.61L334.05 361.99L325.86 361.99L325.86 405M379.42 405.96C379.42 410.12 376.67 412.74 373.66 412.74C369.31 412.74 367.14 410.44 367.14 406.73L359.39 406.73C359.39 414.86 364.06 419.91 373.28 419.91C381.34 419.91 387.74 414.73 387.74 405.83L387.74 373.51L379.42 373.51L379.42 392.71C379.42 396.10 376.80 398.60 373.02 398.60C369.50 398.60 367.71 396.62 367.71 392.71L367.71 373.51L359.39 373.51L359.39 393.93C359.39 400.84 364.32 405.32 370.91 405.32C374.82 405.32 378.27 403.66 379.42 400.84M421.86 399.05C417.89 399.05 414.82 395.34 414.82 390.02C414.82 383.18 417.18 379.78 421.79 379.78C426.66 379.78 428.96 383.05 428.96 389.51C428.96 395.14 426.02 399.05 421.86 399.05M414.94 405L415.01 401.16C416.99 404.36 419.94 405.83 423.78 405.83C431.71 405.83 437.41 399.56 437.41 388.94C437.41 379.40 432.61 372.68 424.48 372.68C420.58 372.68 417.50 374.28 415.14 377.61L415.14 361.99L406.94 361.99L406.94 405M459.55 393.03C459.49 396.74 456.29 399.88 452 399.88C449.38 399.88 447.97 398.73 447.97 396.36C447.97 393.67 449.50 392.33 454.24 391.43C457.31 390.86 458.78 390.41 459.62 389.58M467.94 405L467.94 385.10C467.94 377.16 464.48 372.68 454.50 372.68C444.38 372.68 440.80 377.22 440.67 383.75L448.42 383.75C448.80 380.94 450.34 379.08 454.11 379.08C457.38 379.08 459.42 380.30 459.42 382.34C459.42 384.52 458.27 385.35 454.11 385.93C445.73 387.08 439.65 388.10 439.65 397.19C439.65 402.31 442.98 405.83 450.14 405.83C454.37 405.83 457.70 404.36 459.68 402.18C459.74 403.14 459.94 404.23 460.19 405M479.90 405L479.90 361.99L471.58 361.99L471.58 405M502.50 393.03C502.43 396.74 499.23 399.88 494.94 399.88C492.32 399.88 490.91 398.73 490.91 396.36C490.91 393.67 492.45 392.33 497.18 391.43C500.26 390.86 501.73 390.41 502.56 389.58M510.88 405L510.88 385.10C510.88 377.16 507.42 372.68 497.44 372.68C487.33 372.68 483.74 377.22 483.62 383.75L491.36 383.75C491.74 380.94 493.28 379.08 497.06 379.08C500.32 379.08 502.37 380.30 502.37 382.34C502.37 384.52 501.22 385.35 497.06 385.93C488.67 387.08 482.59 388.10 482.59 397.19C482.59 402.31 485.92 405.83 493.09 405.83C497.31 405.83 500.64 404.36 502.62 402.18C502.69 403.14 502.88 404.23 503.14 405M543.07 405L543.07 383.18C543.07 376.33 538.66 372.68 532.64 372.68C527.58 372.68 524.38 374.60 522.46 378.12L522.46 373.51L514.53 373.51L514.53 405L522.85 405L522.85 386.95C522.85 382.15 524.96 379.72 529.31 379.72C533.28 379.72 534.69 381.06 534.69 385.93L534.69 405M566.69 393.61C566.37 397 563.81 398.86 560.54 398.86C557.28 398.86 554.40 395.53 554.40 388.68C554.40 381.83 557.28 379.59 560.80 379.59C563.94 379.59 566.30 381.51 566.75 384.78L575.14 384.78C574.62 377.35 569.06 372.68 560.86 372.68C552.03 372.68 546.14 377.61 546.14 388.87C546.14 400.14 552.03 405.83 560.61 405.83C568.22 405.83 574.18 400.90 575.07 393.61M585.38 386.18C585.70 381.83 588.45 379.27 591.78 379.27C595.04 379.27 598.11 381.51 598.24 386.18M606.82 391.43C606.82 378.95 601.70 372.68 592.03 372.68C582.37 372.68 576.80 378.95 576.80 388.68C576.80 400.07 582.05 405.83 592.54 405.83C599.26 405.83 604.45 402.18 606.37 395.72L597.79 395.72C597.22 397.90 594.85 399.24 592.16 399.24C588.06 399.24 585.38 396.17 585.12 391.43M626.02 405L637.34 373.51L628.58 373.51L621.92 394.31L615.33 373.51L606.05 373.51L617.31 405M645.28 386.18C645.60 381.83 648.35 379.27 651.68 379.27C654.94 379.27 658.02 381.51 658.14 386.18M666.72 391.43C666.72 378.95 661.60 372.68 651.94 372.68C642.27 372.68 636.70 378.95 636.70 388.68C636.70 400.07 641.95 405.83 652.45 405.83C659.17 405.83 664.35 402.18 666.27 395.72L657.70 395.72C657.12 397.90 654.75 399.24 652.06 399.24C647.97 399.24 645.28 396.17 645.02 391.43M698.14 405L698.14 383.18C698.14 376.33 693.73 372.68 687.71 372.68C682.66 372.68 679.46 374.60 677.54 378.12L677.54 373.51L669.60 373.51L669.60 405L677.92 405L677.92 386.95C677.92 382.15 680.03 379.72 684.38 379.72C688.35 379.72 689.76 381.06 689.76 385.93L689.76 405"/>
  <path fill="#F2E6CB" d="M127.28 867.57L127.28 819.61L138.61 819.61C153.24 819.61 158.96 826.21 158.96 842.71C158.96 859.21 153.24 867.57 139.93 867.57M143 880C161.93 880 174.58 864.93 174.58 842.71C174.58 820.49 160.50 806.96 140.70 806.96L112.43 806.96L112.43 880M193.06 847.66C193.61 840.18 198.34 835.78 204.06 835.78C209.67 835.78 214.95 839.63 215.17 847.66M229.91 856.68C229.91 835.23 221.11 824.45 204.50 824.45C187.89 824.45 178.32 835.23 178.32 851.95C178.32 871.53 187.34 881.43 205.38 881.43C216.93 881.43 225.84 875.16 229.14 864.05L214.40 864.05C213.41 867.79 209.34 870.10 204.72 870.10C197.68 870.10 193.06 864.82 192.62 856.68M260.70 851.73L260.70 840.62L233.43 840.62L233.43 851.73M291.29 869.77C284.47 869.77 279.19 863.39 279.19 854.26C279.19 842.49 283.25 836.66 291.18 836.66C299.54 836.66 303.50 842.27 303.50 853.38C303.50 863.06 298.44 869.77 291.29 869.77M279.41 880L279.51 873.40C282.93 878.90 287.99 881.43 294.59 881.43C308.23 881.43 318.01 870.65 318.01 852.39C318.01 836 309.76 824.45 295.80 824.45C289.09 824.45 283.81 827.20 279.74 832.92L279.74 806.08L265.66 806.08L265.66 880M337.60 880L337.60 806.08L323.30 806.08L323.30 880M370.27 869.44C361.58 869.44 357.18 863.94 357.18 852.94C357.18 841.94 361.58 836.55 370.27 836.55C378.96 836.55 383.36 841.94 383.36 852.94C383.36 863.94 378.96 869.44 370.27 869.44M370.27 881.43C387.10 881.43 397.77 870.10 397.77 852.94C397.77 835.67 387.21 824.45 370.27 824.45C353.11 824.45 342.44 835.78 342.44 852.94C342.44 869.77 352.78 881.43 370.27 881.43M435.72 859.43C435.61 865.81 430.11 871.20 422.74 871.20C418.23 871.20 415.81 869.22 415.81 865.15C415.81 860.53 418.45 858.22 426.59 856.68C431.87 855.69 434.40 854.92 435.83 853.49M450.13 880L450.13 845.79C450.13 832.15 444.19 824.45 427.03 824.45C409.65 824.45 403.49 832.26 403.27 843.48L416.58 843.48C417.24 838.64 419.88 835.45 426.37 835.45C431.98 835.45 435.50 837.54 435.50 841.06C435.50 844.80 433.52 846.23 426.37 847.22C411.96 849.20 401.51 850.96 401.51 866.58C401.51 875.38 407.23 881.43 419.55 881.43C426.81 881.43 432.53 878.90 435.94 875.16C436.05 876.81 436.38 878.68 436.82 880M487.09 858.44C487.09 865.15 484.45 869 478.73 869C472.90 869 470.48 865.04 470.48 858.22L470.48 836L500.40 836L500.40 825.88L470.48 825.88L470.48 811.25L456.40 811.25L456.40 859.65C456.40 871.31 462.67 881.43 478.50 881.43C493.80 881.43 500.40 871.20 500.40 859.76L500.40 844.36L487.09 844.36M568.92 857.78C568.92 866.25 565.29 870.76 557.92 870.76C549.57 870.76 545.83 865.48 545.83 859.43C545.83 852.06 551 848.43 559.68 848.43L559.68 838.09C550.12 838.09 546.26 835.23 546.26 829.07C546.26 821.92 549.78 818.95 559.68 818.95L559.68 806.96C543.40 806.96 532.18 815.21 532.18 827.42C532.18 834.57 534.93 839.74 540.65 842.71C535.60 844.91 531.86 852.83 531.86 859.65C531.86 872.63 541.42 882.53 558.03 882.53C572.66 882.53 582.67 872.63 582.67 857.78L582.67 838.09L568.92 838.09M629.31 867.57L629.31 819.61L640.64 819.61C655.27 819.61 660.99 826.21 660.99 842.71C660.99 859.21 655.27 867.57 641.96 867.57M645.04 880C663.96 880 676.62 864.93 676.62 842.71C676.62 820.49 662.53 806.96 642.73 806.96L614.46 806.96L614.46 880M696.19 880L696.19 825.88L681.89 825.88L681.89 880M696.19 819.39L696.19 806.08L681.89 806.08L681.89 819.39M728.64 869.22C721.60 869.22 716.43 863.06 716.43 853.38C716.43 842.27 720.61 836.88 728.64 836.88C736.78 836.88 740.85 842.49 740.85 854.26C740.85 863.39 735.57 869.22 728.64 869.22M740.41 881.65C740.41 888.80 734.36 893.31 726.77 893.31C719.62 893.31 714.89 889.46 714.89 882.97L701.58 882.97C701.58 896.94 712.69 905.63 727.76 905.63C742.83 905.63 754.71 896.83 754.71 880.55L754.71 825.88L740.41 825.88L740.41 832.59C737 827.09 732.05 824.45 725.23 824.45C712.14 824.45 701.58 835.78 701.58 852.61C701.58 866.80 707.74 880.44 725.56 880.44C732.60 880.44 738.43 877.58 740.41 872.74M774.51 847.66C775.06 840.18 779.79 835.78 785.51 835.78C791.12 835.78 796.40 839.63 796.62 847.66M811.36 856.68C811.36 835.23 802.56 824.45 785.95 824.45C769.34 824.45 759.77 835.23 759.77 851.95C759.77 871.53 768.79 881.43 786.83 881.43C798.38 881.43 807.29 875.16 810.59 864.05L795.85 864.05C794.86 867.79 790.79 870.10 786.17 870.10C779.13 870.10 774.51 864.82 774.07 856.68M862.62 842.27C861.85 830.61 854.81 824.45 839.19 824.45C822.69 824.45 816.42 831.38 816.42 840.51C816.42 845.35 818.18 849.53 823.24 852.72C827.09 855.14 832.15 856.68 841.28 858.88C845.90 859.98 849.97 861.19 849.97 865.04C849.97 869.11 845.46 870.65 840.40 870.65C833.47 870.65 829.18 867.68 829.18 862.62L814.44 862.62C814.66 873.62 823.90 881.43 840.51 881.43C855.91 881.43 864.16 874.72 864.16 863.50C864.16 856.46 860.97 852.72 855.25 850.41C851.07 848.76 845.24 847.55 839.08 845.79C833.25 844.14 830.28 842.82 830.28 839.63C830.28 836.44 833.36 835.12 838.75 835.12C845.24 835.12 848.10 836.99 848.87 842.27M898.26 858.44C898.26 865.15 895.62 869 889.90 869C884.07 869 881.65 865.04 881.65 858.22L881.65 836L911.57 836L911.57 825.88L881.65 825.88L881.65 811.25L867.57 811.25L867.57 859.65C867.57 871.31 873.84 881.43 889.68 881.43C904.97 881.43 911.57 871.20 911.57 859.76L911.57 844.36L898.26 844.36"/>
  <path fill="#0A0A0A" d="M368.63 961.18C362.87 961.18 358.64 956.14 358.64 948.22C358.64 939.13 362.06 934.72 368.63 934.72C375.29 934.72 378.62 939.31 378.62 948.94C378.62 956.41 374.30 961.18 368.63 961.18M378.26 971.35C378.26 977.20 373.31 980.89 367.10 980.89C361.25 980.89 357.38 977.74 357.38 972.43L346.49 972.43C346.49 983.86 355.58 990.97 367.91 990.97C380.24 990.97 389.96 983.77 389.96 970.45L389.96 925.72L378.26 925.72L378.26 931.21C375.47 926.71 371.42 924.55 365.84 924.55C355.13 924.55 346.49 933.82 346.49 947.59C346.49 959.20 351.53 970.36 366.11 970.36C371.87 970.36 376.64 968.02 378.26 964.06M434.96 970L434.96 925.72L423.35 925.72L423.35 951.28C423.35 957.13 420.20 961.36 414.26 961.36C409.31 961.36 406.79 958.66 406.79 953.08L406.79 925.72L395.09 925.72L395.09 954.88C395.09 964.60 401.30 971.17 410.12 971.17C416.24 971.17 420.83 968.83 423.89 963.79L423.89 970M503.45 970L503.45 939.31C503.45 931.03 497.24 924.55 488.33 924.55C482.75 924.55 478.79 926.71 476.36 931.57C472.94 926.44 470.06 924.55 464.03 924.55C458.18 924.55 454.04 926.35 451.07 932.20L451.07 925.72L440.09 925.72L440.09 970L451.79 970L451.79 943.09C451.79 937.33 454.22 934.45 458.90 934.45C464.03 934.45 465.92 936.25 465.92 943.36L465.92 970L477.62 970L477.62 943.54C477.62 938.14 480.77 934.09 485.09 934.09C489.23 934.09 492.02 937.87 492.02 943.18L492.02 970M571.31 970L571.31 939.31C571.31 931.03 565.10 924.55 556.19 924.55C550.61 924.55 546.65 926.71 544.22 931.57C540.80 926.44 537.92 924.55 531.89 924.55C526.04 924.55 521.90 926.35 518.93 932.20L518.93 925.72L507.95 925.72L507.95 970L519.65 970L519.65 943.09C519.65 937.33 522.08 934.45 526.76 934.45C531.89 934.45 533.78 936.25 533.78 943.36L533.78 970L545.48 970L545.48 943.54C545.48 938.14 548.63 934.09 552.95 934.09C557.09 934.09 559.88 937.87 559.88 943.18L559.88 970M587.78 970L587.78 925.72L576.08 925.72L576.08 970M587.78 920.41L587.78 909.52L576.08 909.52L576.08 920.41M604.16 943.54C604.61 937.42 608.48 933.82 613.16 933.82C617.75 933.82 622.07 936.97 622.25 943.54M634.31 950.92C634.31 933.37 627.11 924.55 613.52 924.55C599.93 924.55 592.10 933.37 592.10 947.05C592.10 963.07 599.48 971.17 614.24 971.17C623.69 971.17 630.98 966.04 633.68 956.95L621.62 956.95C620.81 960.01 617.48 961.90 613.70 961.90C607.94 961.90 604.16 957.58 603.80 950.92M676.25 939.13C675.62 929.59 669.86 924.55 657.08 924.55C643.58 924.55 638.45 930.22 638.45 937.69C638.45 941.65 639.89 945.07 644.03 947.68C647.18 949.66 651.32 950.92 658.79 952.72C662.57 953.62 665.90 954.61 665.90 957.76C665.90 961.09 662.21 962.35 658.07 962.35C652.40 962.35 648.89 959.92 648.89 955.78L636.83 955.78C637.01 964.78 644.57 971.17 658.16 971.17C670.76 971.17 677.51 965.68 677.51 956.50C677.51 950.74 674.90 947.68 670.22 945.79C666.80 944.44 662.03 943.45 656.99 942.01C652.22 940.66 649.79 939.58 649.79 936.97C649.79 934.36 652.31 933.28 656.72 933.28C662.03 933.28 664.37 934.81 665 939.13"/>
  <rect x="371.24" y="1356.00" width="281.51" height="88.00" rx="44.00" ry="44.00" fill="none" stroke="#0A0A0A" stroke-width="4"/>
  <path fill="#0A0A0A" d="M414.14 1417.92L414.14 1380.74L408.20 1380.74C407.76 1385.05 405.63 1387.18 399.24 1387.18L399.24 1392.22L406.86 1392.22L406.86 1417.92M429.43 1413.33C425.90 1413.33 424.11 1409.63 424.11 1399.27C424.11 1389.02 425.90 1385.33 429.43 1385.33C432.96 1385.33 434.69 1389.08 434.69 1399.38C434.69 1409.52 432.96 1413.33 429.43 1413.33M429.20 1419.21C437.21 1419.21 442.08 1412.88 442.08 1399.05C442.08 1385.22 437.21 1379.50 429.20 1379.50C421.20 1379.50 416.55 1385.22 416.55 1399.16C416.55 1413.16 421.20 1419.21 429.20 1419.21M482.80 1405.15C481.73 1409.80 478.93 1412.43 474.34 1412.43C468.29 1412.43 465.27 1407.56 465.27 1399.33C465.27 1391.21 468.29 1386.22 474.73 1386.22C478.43 1386.22 481.73 1388.74 482.80 1392.94L490.58 1392.94C489.85 1385.44 483.97 1379.50 474.68 1379.50C464.04 1379.50 457.37 1387.18 457.37 1399.78C457.37 1412.54 464.82 1419.21 474.56 1419.21C483.19 1419.21 489.01 1413.61 490.58 1405.15M509.56 1412.54C503.12 1412.54 499.37 1408.62 499.37 1399.83C499.37 1391.04 503.01 1386.39 509.56 1386.39C516.06 1386.39 519.64 1391.04 519.64 1399.83C519.64 1408.62 515.16 1412.54 509.56 1412.54M509.56 1419.21C520.99 1419.21 527.32 1412.60 527.32 1399.83C527.32 1387.06 520.99 1379.50 509.56 1379.50C498.14 1379.50 491.70 1387.06 491.70 1399.66C491.70 1412.21 498.14 1419.21 509.56 1419.21M551.68 1405.54C551.68 1410.42 549.21 1412.77 544.23 1412.77C540.03 1412.77 537.56 1409.86 537.56 1405.26L537.56 1380.74L529.67 1380.74L529.67 1405.99C529.67 1414.95 535.32 1419.21 544.34 1419.21C554.08 1419.21 559.63 1414.56 559.63 1405.54L559.63 1380.74L551.68 1380.74M592.78 1417.92L592.78 1380.74L585.50 1380.74L585.50 1404.65L570.72 1380.74L562.48 1380.74L562.48 1417.92L569.71 1417.92L569.71 1392.94L585.61 1417.92M613.50 1417.92L613.50 1387.23L624.76 1387.23L624.76 1380.74L594.52 1380.74L594.52 1387.23L605.72 1387.23L605.72 1417.92"/>
</svg>
