<svg xmlns="http://www.w3.org/2000/svg" viewBox="0 0 1200 1800" width="1200" height="1800">
  <!-- transparent base; foil shader shows through -->
  <path fill="#0A0A0A" d="M266.37 369.60L266.37 348.54L213.81 348.54L213.81 321.36L273.93 321.36L273.93 300.48L188.79 300.48L188.79 420L213.81 420L213.81 369.60M303.63 420L303.63 299.04L280.23 299.04L280.23 420M357.09 402.72C342.87 402.72 335.67 393.72 335.67 375.72C335.67 357.72 342.87 348.90 357.09 348.90C371.31 348.90 378.51 357.72 378.51 375.72C378.51 393.72 371.31 402.72 357.09 402.72M357.09 422.34C384.63 422.34 402.09 403.80 402.09 375.72C402.09 347.46 384.81 329.10 357.09 329.10C329.01 329.10 311.55 347.64 311.55 375.72C311.55 403.26 328.47 422.34 357.09 422.34M464.19 386.34C464.01 396.78 455.01 405.60 442.95 405.60C435.57 405.60 431.61 402.36 431.61 395.70C431.61 388.14 435.93 384.36 449.25 381.84C457.89 380.22 462.03 378.96 464.37 376.62M487.77 420L487.77 364.02C487.77 341.70 478.05 329.10 449.97 329.10C421.53 329.10 411.45 341.88 411.09 360.24L432.87 360.24C433.95 352.32 438.27 347.10 448.89 347.10C458.07 347.10 463.83 350.52 463.83 356.28C463.83 362.40 460.59 364.74 448.89 366.36C425.31 369.60 408.21 372.48 408.21 398.04C408.21 412.44 417.57 422.34 437.73 422.34C449.61 422.34 458.97 418.20 464.55 412.08C464.73 414.78 465.27 417.84 465.99 420M548.25 384.72C548.25 395.70 543.93 402 534.57 402C525.03 402 521.07 395.52 521.07 384.36L521.07 348L570.03 348L570.03 331.44L521.07 331.44L521.07 307.50L498.03 307.50L498.03 386.70C498.03 405.78 508.29 422.34 534.21 422.34C559.23 422.34 570.03 405.60 570.03 386.88L570.03 361.68L548.25 361.68M646.53 399.66L646.53 367.44L678.57 367.44C689.73 367.44 696.57 372.12 696.57 382.56C696.57 392.28 689.73 399.66 678.21 399.66M676.59 321.18C688.29 321.18 693.15 324.96 693.15 334.14C693.15 342.60 687.93 347.10 678.03 347.10L646.53 347.10L646.53 321.18M676.23 420C706.29 420 720.87 406.14 720.87 384.36C720.87 367.26 712.77 359.16 702.69 355.38C710.97 351.96 717.27 343.32 717.27 333.06C717.27 313.08 704.67 300.48 681.27 300.48L622.41 300.48L622.41 420M750.21 420L750.21 331.44L726.81 331.44L726.81 420M750.21 320.82L750.21 299.04L726.81 299.04L726.81 320.82M811.05 384.72C811.05 395.70 806.73 402 797.37 402C787.83 402 783.87 395.52 783.87 384.36L783.87 348L832.83 348L832.83 331.44L783.87 331.44L783.87 307.50L760.83 307.50L760.83 386.70C760.83 405.78 771.09 422.34 797.01 422.34C822.03 422.34 832.83 405.60 832.83 386.88L832.83 361.68L811.05 361.68M864.51 367.08C865.41 354.84 873.15 347.64 882.51 347.64C891.69 347.64 900.33 353.94 900.69 367.08M924.81 381.84C924.81 346.74 910.41 329.10 883.23 329.10C856.05 329.10 840.39 346.74 840.39 374.10C840.39 406.14 855.15 422.34 884.67 422.34C903.57 422.34 918.15 412.08 923.55 393.90L899.43 393.90C897.81 400.02 891.15 403.80 883.59 403.80C872.07 403.80 864.51 395.16 863.79 381.84M1008.69 358.26C1007.43 339.18 995.91 329.10 970.35 329.10C943.35 329.10 933.09 340.44 933.09 355.38C933.09 363.30 935.97 370.14 944.25 375.36C950.55 379.32 958.83 381.84 973.77 385.44C981.33 387.24 987.99 389.22 987.99 395.52C987.99 402.18 980.61 404.70 972.33 404.70C960.99 404.70 953.97 399.84 953.97 391.56L929.85 391.56C930.21 409.56 945.33 422.34 972.51 422.34C997.71 422.34 1011.21 411.36 1011.21 393C1011.21 381.48 1005.99 375.36 996.63 371.58C989.79 368.88 980.25 366.90 970.17 364.02C960.63 361.32 955.77 359.16 955.77 353.94C955.77 348.72 960.81 346.56 969.63 346.56C980.25 346.56 984.93 349.62 986.19 358.26"/>
  <path fill="#0A0A0A" d="M460.87 485.16C457.65 485.16 455.15 482.15 455.15 477.83C455.15 472.27 457.08 469.51 460.82 469.51C464.77 469.51 466.65 472.16 466.65 477.42C466.65 481.99 464.25 485.16 460.87 485.16M455.26 490L455.31 486.88C456.92 489.48 459.31 490.68 462.43 490.68C468.88 490.68 473.51 485.58 473.51 476.95C473.51 469.20 469.61 463.74 463.01 463.74C459.83 463.74 457.34 465.04 455.41 467.74L455.41 455.06L448.76 455.06L448.76 490M492.28 490.78C492.28 494.16 490.05 496.29 487.60 496.29C484.07 496.29 482.30 494.42 482.30 491.40L476.01 491.40C476.01 498.01 479.80 502.12 487.29 502.12C493.84 502.12 499.04 497.90 499.04 490.68L499.04 464.42L492.28 464.42L492.28 480.02C492.28 482.77 490.15 484.80 487.08 484.80C484.22 484.80 482.77 483.19 482.77 480.02L482.77 464.42L476.01 464.42L476.01 481C476.01 486.62 480.01 490.26 485.37 490.26C488.54 490.26 491.35 488.91 492.28 486.62M526.76 485.16C523.53 485.16 521.04 482.15 521.04 477.83C521.04 472.27 522.96 469.51 526.71 469.51C530.66 469.51 532.53 472.16 532.53 477.42C532.53 481.99 530.14 485.16 526.76 485.16M521.14 490L521.19 486.88C522.81 489.48 525.20 490.68 528.32 490.68C534.77 490.68 539.39 485.58 539.39 476.95C539.39 469.20 535.49 463.74 528.89 463.74C525.72 463.74 523.22 465.04 521.30 467.74L521.30 455.06L514.64 455.06L514.64 490M557.39 480.28C557.33 483.29 554.73 485.84 551.25 485.84C549.12 485.84 547.97 484.90 547.97 482.98C547.97 480.80 549.22 479.70 553.07 478.98C555.57 478.51 556.76 478.14 557.44 477.47M564.20 490L564.20 473.83C564.20 467.38 561.39 463.74 553.28 463.74C545.06 463.74 542.15 467.43 542.05 472.74L548.34 472.74C548.65 470.45 549.90 468.94 552.97 468.94C555.62 468.94 557.28 469.93 557.28 471.59C557.28 473.36 556.35 474.04 552.97 474.50C546.15 475.44 541.21 476.27 541.21 483.66C541.21 487.82 543.92 490.68 549.74 490.68C553.17 490.68 555.88 489.48 557.49 487.71C557.54 488.49 557.70 489.38 557.91 490M573.92 490L573.92 455.06L567.16 455.06L567.16 490M592.28 480.28C592.23 483.29 589.63 485.84 586.14 485.84C584.01 485.84 582.87 484.90 582.87 482.98C582.87 480.80 584.11 479.70 587.96 478.98C590.46 478.51 591.65 478.14 592.33 477.47M599.09 490L599.09 473.83C599.09 467.38 596.28 463.74 588.17 463.74C579.95 463.74 577.04 467.43 576.94 472.74L583.23 472.74C583.54 470.45 584.79 468.94 587.86 468.94C590.51 468.94 592.17 469.93 592.17 471.59C592.17 473.36 591.24 474.04 587.86 474.50C581.05 475.44 576.11 476.27 576.11 483.66C576.11 487.82 578.81 490.68 584.63 490.68C588.07 490.68 590.77 489.48 592.38 487.71C592.43 488.49 592.59 489.38 592.80 490M625.25 490L625.25 472.27C625.25 466.70 621.66 463.74 616.77 463.74C612.66 463.74 610.06 465.30 608.50 468.16L608.50 464.42L602.05 464.42L602.05 490L608.81 490L608.81 475.34C608.81 471.44 610.53 469.46 614.07 469.46C617.29 469.46 618.43 470.55 618.43 474.50L618.43 490M644.43 480.74C644.17 483.50 642.09 485.01 639.44 485.01C636.79 485.01 634.45 482.30 634.45 476.74C634.45 471.18 636.79 469.36 639.65 469.36C642.20 469.36 644.12 470.92 644.49 473.57L651.30 473.57C650.88 467.54 646.36 463.74 639.70 463.74C632.53 463.74 627.74 467.74 627.74 476.90C627.74 486.05 632.53 490.68 639.49 490.68C645.68 490.68 650.52 486.67 651.25 480.74M659.62 474.71C659.88 471.18 662.11 469.10 664.82 469.10C667.47 469.10 669.97 470.92 670.07 474.71M677.04 478.98C677.04 468.84 672.88 463.74 665.03 463.74C657.17 463.74 652.65 468.84 652.65 476.74C652.65 486 656.91 490.68 665.44 490.68C670.90 490.68 675.11 487.71 676.67 482.46L669.71 482.46C669.24 484.23 667.31 485.32 665.13 485.32C661.80 485.32 659.62 482.82 659.41 478.98M692.64 490L701.84 464.42L694.72 464.42L689.31 481.32L683.95 464.42L676.41 464.42L685.57 490M708.29 474.71C708.55 471.18 710.79 469.10 713.49 469.10C716.14 469.10 718.64 470.92 718.74 474.71M725.71 478.98C725.71 468.84 721.55 463.74 713.70 463.74C705.85 463.74 701.32 468.84 701.32 476.74C701.32 486 705.59 490.68 714.11 490.68C719.57 490.68 723.79 487.71 725.35 482.46L718.38 482.46C717.91 484.23 715.99 485.32 713.80 485.32C710.47 485.32 708.29 482.82 708.08 478.98M751.24 490L751.24 472.27C751.24 466.70 747.65 463.74 742.77 463.74C738.66 463.74 736.06 465.30 734.50 468.16L734.50 464.42L728.05 464.42L728.05 490L734.81 490L734.81 475.34C734.81 471.44 736.53 469.46 740.06 469.46C743.29 469.46 744.43 470.55 744.43 474.50L744.43 490"/>
  <path fill="#F2E6CB" d="M264.24 1169.15L264.24 1127.30L274.13 1127.30C286.90 1127.30 291.89 1133.06 291.89 1147.46C291.89 1161.86 286.90 1169.15 275.28 1169.15M277.97 1180C294.48 1180 305.52 1166.85 305.52 1147.46C305.52 1128.06 293.23 1116.26 275.95 1116.26L251.28 1116.26L251.28 1180M321.65 1151.78C322.13 1145.25 326.26 1141.41 331.25 1141.41C336.14 1141.41 340.75 1144.77 340.94 1151.78M353.81 1159.65C353.81 1140.93 346.13 1131.52 331.63 1131.52C317.14 1131.52 308.78 1140.93 308.78 1155.52C308.78 1172.61 316.66 1181.25 332.40 1181.25C342.48 1181.25 350.26 1175.78 353.14 1166.08L340.27 1166.08C339.41 1169.34 335.86 1171.36 331.82 1171.36C325.68 1171.36 321.65 1166.75 321.26 1159.65M380.69 1155.33L380.69 1145.63L356.88 1145.63L356.88 1155.33M407.38 1171.07C401.42 1171.07 396.82 1165.50 396.82 1157.54C396.82 1147.26 400.37 1142.18 407.28 1142.18C414.58 1142.18 418.03 1147.07 418.03 1156.77C418.03 1165.22 413.62 1171.07 407.38 1171.07M397.01 1180L397.10 1174.24C400.08 1179.04 404.50 1181.25 410.26 1181.25C422.16 1181.25 430.70 1171.84 430.70 1155.90C430.70 1141.60 423.50 1131.52 411.31 1131.52C405.46 1131.52 400.85 1133.92 397.30 1138.91L397.30 1115.49L385.01 1115.49L385.01 1180M447.79 1180L447.79 1115.49L435.31 1115.49L435.31 1180M476.30 1170.78C468.72 1170.78 464.88 1165.98 464.88 1156.38C464.88 1146.78 468.72 1142.08 476.30 1142.08C483.89 1142.08 487.73 1146.78 487.73 1156.38C487.73 1165.98 483.89 1170.78 476.30 1170.78M476.30 1181.25C490.99 1181.25 500.30 1171.36 500.30 1156.38C500.30 1141.31 491.09 1131.52 476.30 1131.52C461.33 1131.52 452.02 1141.41 452.02 1156.38C452.02 1171.07 461.04 1181.25 476.30 1181.25M533.42 1162.05C533.33 1167.62 528.53 1172.32 522.10 1172.32C518.16 1172.32 516.05 1170.59 516.05 1167.04C516.05 1163.01 518.35 1160.99 525.46 1159.65C530.06 1158.78 532.27 1158.11 533.52 1156.86M546 1180L546 1150.14C546 1138.24 540.82 1131.52 525.84 1131.52C510.67 1131.52 505.30 1138.34 505.10 1148.13L516.72 1148.13C517.30 1143.90 519.60 1141.12 525.26 1141.12C530.16 1141.12 533.23 1142.94 533.23 1146.02C533.23 1149.28 531.50 1150.53 525.26 1151.39C512.69 1153.12 503.57 1154.66 503.57 1168.29C503.57 1175.97 508.56 1181.25 519.31 1181.25C525.65 1181.25 530.64 1179.04 533.62 1175.78C533.71 1177.22 534 1178.85 534.38 1180M578.26 1161.18C578.26 1167.04 575.95 1170.40 570.96 1170.40C565.87 1170.40 563.76 1166.94 563.76 1160.99L563.76 1141.60L589.87 1141.60L589.87 1132.77L563.76 1132.77L563.76 1120L551.47 1120L551.47 1162.24C551.47 1172.42 556.94 1181.25 570.77 1181.25C584.11 1181.25 589.87 1172.32 589.87 1162.34L589.87 1148.90L578.26 1148.90M649.68 1160.61C649.68 1168 646.51 1171.94 640.08 1171.94C632.78 1171.94 629.52 1167.33 629.52 1162.05C629.52 1155.62 634.03 1152.45 641.62 1152.45L641.62 1143.42C633.26 1143.42 629.90 1140.93 629.90 1135.55C629.90 1129.31 632.98 1126.72 641.62 1126.72L641.62 1116.26C627.41 1116.26 617.62 1123.46 617.62 1134.11C617.62 1140.35 620.02 1144.86 625.01 1147.46C620.59 1149.38 617.33 1156.29 617.33 1162.24C617.33 1173.57 625.68 1182.21 640.18 1182.21C652.94 1182.21 661.68 1173.57 661.68 1160.61L661.68 1143.42L649.68 1143.42M702.38 1169.15L702.38 1127.30L712.27 1127.30C725.04 1127.30 730.03 1133.06 730.03 1147.46C730.03 1161.86 725.04 1169.15 713.42 1169.15M716.11 1180C732.62 1180 743.66 1166.85 743.66 1147.46C743.66 1128.06 731.38 1116.26 714.10 1116.26L689.42 1116.26L689.42 1180M760.75 1180L760.75 1132.77L748.27 1132.77L748.27 1180M760.75 1127.10L760.75 1115.49L748.27 1115.49L748.27 1127.10M789.07 1170.59C782.93 1170.59 778.42 1165.22 778.42 1156.77C778.42 1147.07 782.06 1142.37 789.07 1142.37C796.18 1142.37 799.73 1147.26 799.73 1157.54C799.73 1165.50 795.12 1170.59 789.07 1170.59M799.34 1181.44C799.34 1187.68 794.06 1191.62 787.44 1191.62C781.20 1191.62 777.07 1188.26 777.07 1182.59L765.46 1182.59C765.46 1194.78 775.15 1202.37 788.30 1202.37C801.46 1202.37 811.82 1194.69 811.82 1180.48L811.82 1132.77L799.34 1132.77L799.34 1138.62C796.37 1133.82 792.05 1131.52 786.10 1131.52C774.67 1131.52 765.46 1141.41 765.46 1156.10C765.46 1168.48 770.83 1180.38 786.38 1180.38C792.53 1180.38 797.62 1177.89 799.34 1173.66M829.10 1151.78C829.58 1145.25 833.71 1141.41 838.70 1141.41C843.60 1141.41 848.21 1144.77 848.40 1151.78M861.26 1159.65C861.26 1140.93 853.58 1131.52 839.09 1131.52C824.59 1131.52 816.24 1140.93 816.24 1155.52C816.24 1172.61 824.11 1181.25 839.86 1181.25C849.94 1181.25 857.71 1175.78 860.59 1166.08L847.73 1166.08C846.86 1169.34 843.31 1171.36 839.28 1171.36C833.14 1171.36 829.10 1166.75 828.72 1159.65M906 1147.07C905.33 1136.90 899.18 1131.52 885.55 1131.52C871.15 1131.52 865.68 1137.57 865.68 1145.54C865.68 1149.76 867.22 1153.41 871.63 1156.19C874.99 1158.30 879.41 1159.65 887.38 1161.57C891.41 1162.53 894.96 1163.58 894.96 1166.94C894.96 1170.50 891.02 1171.84 886.61 1171.84C880.56 1171.84 876.82 1169.25 876.82 1164.83L863.95 1164.83C864.14 1174.43 872.21 1181.25 886.70 1181.25C900.14 1181.25 907.34 1175.39 907.34 1165.60C907.34 1159.46 904.56 1156.19 899.57 1154.18C895.92 1152.74 890.83 1151.68 885.46 1150.14C880.37 1148.70 877.78 1147.55 877.78 1144.77C877.78 1141.98 880.46 1140.83 885.17 1140.83C890.83 1140.83 893.33 1142.46 894 1147.07M937.10 1161.18C937.10 1167.04 934.80 1170.40 929.81 1170.40C924.72 1170.40 922.61 1166.94 922.61 1160.99L922.61 1141.60L948.72 1141.60L948.72 1132.77L922.61 1132.77L922.61 1120L910.32 1120L910.32 1162.24C910.32 1172.42 915.79 1181.25 929.62 1181.25C942.96 1181.25 948.72 1172.32 948.72 1162.34L948.72 1148.90L937.10 1148.90"/>
  <path fill="#0A0A0A" d="M475.75 1262.36C470.75 1262.36 467.09 1257.99 467.09 1251.12C467.09 1243.25 470.05 1239.42 475.75 1239.42C481.52 1239.42 484.40 1243.40 484.40 1251.75C484.40 1258.22 480.66 1262.36 475.75 1262.36M484.09 1271.17C484.09 1276.24 479.80 1279.44 474.42 1279.44C469.35 1279.44 466 1276.71 466 1272.11L456.56 1272.11C456.56 1282.01 464.44 1288.17 475.12 1288.17C485.81 1288.17 494.23 1281.93 494.23 1270.39L494.23 1231.62L484.09 1231.62L484.09 1236.38C481.67 1232.48 478.16 1230.61 473.33 1230.61C464.05 1230.61 456.56 1238.64 456.56 1250.58C456.56 1260.64 460.93 1270.31 473.56 1270.31C478.55 1270.31 482.69 1268.28 484.09 1264.85M533.23 1270L533.23 1231.62L523.17 1231.62L523.17 1253.78C523.17 1258.85 520.44 1262.51 515.29 1262.51C511 1262.51 508.82 1260.17 508.82 1255.34L508.82 1231.62L498.68 1231.62L498.68 1256.90C498.68 1265.32 504.06 1271.01 511.70 1271.01C517.01 1271.01 520.99 1268.99 523.64 1264.62L523.64 1270M592.59 1270L592.59 1243.40C592.59 1236.23 587.21 1230.61 579.49 1230.61C574.65 1230.61 571.22 1232.48 569.11 1236.69C566.15 1232.25 563.65 1230.61 558.43 1230.61C553.36 1230.61 549.77 1232.17 547.19 1237.24L547.19 1231.62L537.68 1231.62L537.68 1270L547.82 1270L547.82 1246.68C547.82 1241.69 549.92 1239.19 553.98 1239.19C558.43 1239.19 560.06 1240.75 560.06 1246.91L560.06 1270L570.20 1270L570.20 1247.07C570.20 1242.39 572.93 1238.88 576.68 1238.88C580.27 1238.88 582.68 1242.15 582.68 1246.76L582.68 1270M651.40 1270L651.40 1243.40C651.40 1236.23 646.02 1230.61 638.30 1230.61C633.46 1230.61 630.03 1232.48 627.92 1236.69C624.96 1232.25 622.46 1230.61 617.24 1230.61C612.17 1230.61 608.58 1232.17 606.01 1237.24L606.01 1231.62L596.49 1231.62L596.49 1270L606.63 1270L606.63 1246.68C606.63 1241.69 608.74 1239.19 612.79 1239.19C617.24 1239.19 618.88 1240.75 618.88 1246.91L618.88 1270L629.02 1270L629.02 1247.07C629.02 1242.39 631.75 1238.88 635.49 1238.88C639.08 1238.88 641.50 1242.15 641.50 1246.76L641.50 1270M665.68 1270L665.68 1231.62L655.54 1231.62L655.54 1270M665.68 1227.02L665.68 1217.58L655.54 1217.58L655.54 1227.02M679.87 1247.07C680.26 1241.76 683.62 1238.64 687.67 1238.64C691.65 1238.64 695.39 1241.37 695.55 1247.07M706 1253.46C706 1238.25 699.76 1230.61 687.98 1230.61C676.21 1230.61 669.42 1238.25 669.42 1250.11C669.42 1263.99 675.82 1271.01 688.61 1271.01C696.80 1271.01 703.12 1266.57 705.46 1258.69L695 1258.69C694.30 1261.34 691.42 1262.98 688.14 1262.98C683.15 1262.98 679.87 1259.24 679.56 1253.46M742.35 1243.25C741.80 1234.98 736.81 1230.61 725.74 1230.61C714.04 1230.61 709.59 1235.52 709.59 1242C709.59 1245.43 710.84 1248.39 714.43 1250.66C717.16 1252.37 720.74 1253.46 727.22 1255.02C730.49 1255.80 733.38 1256.66 733.38 1259.39C733.38 1262.28 730.18 1263.37 726.59 1263.37C721.68 1263.37 718.64 1261.26 718.64 1257.68L708.19 1257.68C708.34 1265.48 714.89 1271.01 726.67 1271.01C737.59 1271.01 743.44 1266.26 743.44 1258.30C743.44 1253.31 741.18 1250.66 737.12 1249.02C734.16 1247.85 730.03 1246.99 725.66 1245.74C721.52 1244.57 719.42 1243.64 719.42 1241.37C719.42 1239.11 721.60 1238.18 725.42 1238.18C730.03 1238.18 732.05 1239.50 732.60 1243.25"/>
  <rect x="469.32" y="1521.00" width="261.35" height="78.00" rx="39.00" ry="39.00" fill="none" stroke="#0A0A0A" stroke-width="3.5"/>
  <path fill="#0A0A0A" d="M512.63 1576L512.63 1542.80L507.32 1542.80C506.93 1546.65 505.02 1548.55 499.32 1548.55L499.32 1553.05L506.13 1553.05L506.13 1576M526.27 1571.90C523.13 1571.90 521.52 1568.60 521.52 1559.35C521.52 1550.20 523.13 1546.90 526.27 1546.90C529.42 1546.90 530.97 1550.25 530.97 1559.45C530.97 1568.50 529.42 1571.90 526.27 1571.90M526.07 1577.15C533.22 1577.15 537.57 1571.50 537.57 1559.15C537.57 1546.80 533.22 1541.70 526.07 1541.70C518.92 1541.70 514.77 1546.80 514.77 1559.25C514.77 1571.75 518.92 1577.15 526.07 1577.15M573.92 1564.60C572.97 1568.75 570.47 1571.10 566.37 1571.10C560.97 1571.10 558.27 1566.75 558.27 1559.40C558.27 1552.15 560.97 1547.70 566.72 1547.70C570.02 1547.70 572.97 1549.95 573.92 1553.70L580.87 1553.70C580.22 1547 574.97 1541.70 566.67 1541.70C557.17 1541.70 551.22 1548.55 551.22 1559.80C551.22 1571.20 557.87 1577.15 566.57 1577.15C574.27 1577.15 579.47 1572.15 580.87 1564.60M597.82 1571.20C592.07 1571.20 588.72 1567.70 588.72 1559.85C588.72 1552 591.97 1547.85 597.82 1547.85C603.62 1547.85 606.82 1552 606.82 1559.85C606.82 1567.70 602.82 1571.20 597.82 1571.20M597.82 1577.15C608.02 1577.15 613.67 1571.25 613.67 1559.85C613.67 1548.45 608.02 1541.70 597.82 1541.70C587.62 1541.70 581.87 1548.45 581.87 1559.70C581.87 1570.90 587.62 1577.15 597.82 1577.15M635.42 1564.95C635.42 1569.30 633.22 1571.40 628.77 1571.40C625.02 1571.40 622.82 1568.80 622.82 1564.70L622.82 1542.80L615.77 1542.80L615.77 1565.35C615.77 1573.35 620.82 1577.15 628.87 1577.15C637.57 1577.15 642.52 1573 642.52 1564.95L642.52 1542.80L635.42 1542.80M672.12 1576L672.12 1542.80L665.62 1542.80L665.62 1564.15L652.42 1542.80L645.07 1542.80L645.07 1576L651.52 1576L651.52 1553.70L665.72 1576M690.62 1576L690.62 1548.60L700.67 1548.60L700.67 1542.80L673.67 1542.80L673.67 1548.60L683.67 1548.60L683.67 1576"/>
</svg>
